<?xml version="1.0" encoding="UTF-8" standalone="no"?>
<svg width="44px" height="44px" viewBox="0 0 44 44" version="1.1" xmlns="http://www.w3.org/2000/svg" xmlns:xlink="http://www.w3.org/1999/xlink" xmlns:sketch="http://www.bohemiancoding.com/sketch/ns">
    <!-- Generator: Sketch 3.3.3 (12072) - http://www.bohemiancoding.com/sketch -->
    <title>Image Favicon</title>
    <desc>Created with Sketch.</desc>
    <defs></defs>
    <g id="Page-1" stroke="none" stroke-width="1" fill="none" fill-rule="evenodd" sketch:type="MSPage">
        <g id="Image-Favicon" sketch:type="MSArtboardGroup" fill="#F4F4F4">
            <g id="Layer_4" sketch:type="MSLayerGroup">
                <g id="Group" sketch:type="MSShapeGroup">
                    <path d="M39.3836667,0.933166667 L4.23133333,0.933166667 C2.41083333,0.933166667 0.933166667,2.409 0.933166667,4.23133333 L0.933166667,39.3855 C0.933166667,41.2041667 2.41083333,42.6836667 4.23133333,42.6836667 L39.3836667,42.6836667 C41.206,42.6836667 42.6818333,41.2041667 42.6818333,39.3855 L42.6818333,4.23133333 C42.6818333,2.409 41.206,0.933166667 39.3836667,0.933166667 L39.3836667,0.933166667 Z M38.4816667,35.1853333 C38.4816667,37.004 37.0058333,38.4835 35.1835,38.4835 L8.4315,38.4835 C6.60916667,38.4835 5.13333333,37.004 5.13333333,35.1853333 L5.13333333,8.43333333 C5.13333333,6.611 6.60916667,5.13516667 8.4315,5.13516667 L35.1835,5.13516667 C37.0058333,5.13516667 38.4816667,6.611 38.4816667,8.43333333 L38.4816667,35.1853333 L38.4816667,35.1853333 Z" id="Shape"></path>
                    <circle id="Oval" cx="12.6316667" cy="13.8526667" r="3.89766667"></circle>
                    <path d="M35.178,18.2288333 C34.8443333,18.0858333 34.452,18.1518333 34.1861667,18.403 L21.7488333,30.096 L14.8371667,24.7995 C14.63,24.6418333 14.3641667,24.5776667 14.1075,24.6271667 C13.8508333,24.673 13.6271667,24.8306667 13.4933333,25.0561667 L8.06116667,34.122 C7.89066667,34.4043333 7.887,34.76 8.05016667,35.046 C8.21333333,35.332 8.51766667,35.5116667 8.84766667,35.5116667 L34.815,35.5116667 C35.321,35.5116667 35.7316667,35.0991667 35.7316667,34.595 L35.7316667,19.0685 C35.7316667,18.7055 35.5153333,18.3736667 35.178,18.2288333 L35.178,18.2288333 Z" id="Shape"></path>
                </g>
            </g>
        </g>
    </g>
</svg>