<?xml version="1.0" encoding="utf-8"?>
<!-- Generator: Adobe Illustrator 19.2.1, SVG Export Plug-In . SVG Version: 6.00 Build 0)  -->
<svg version="1.1" id="Layer_1" xmlns:sketch="http://www.bohemiancoding.com/sketch/ns"
	 xmlns="http://www.w3.org/2000/svg" xmlns:xlink="http://www.w3.org/1999/xlink" x="0px" y="0px" viewBox="0 0 44 44"
	 style="enable-background:new 0 0 44 44;" xml:space="preserve">
<title>Image Favicon</title>
<desc>Created with Sketch.</desc>
<g id="Page-1" sketch:type="MSPage">
	<g id="Image-Favicon" sketch:type="MSArtboardGroup">
		<g id="Layer_4" sketch:type="MSLayerGroup">
			<g id="Group" sketch:type="MSShapeGroup">
				<path id="Shape" d="M39.4,0.9H4.2c-1.8,0-3.3,1.5-3.3,3.3v35.2c0,1.8,1.5,3.3,3.3,3.3h35.2c1.8,0,3.3-1.5,3.3-3.3V4.2
					C42.7,2.4,41.2,0.9,39.4,0.9L39.4,0.9z M38.5,35.2c0,1.8-1.5,3.3-3.3,3.3H8.4c-1.8,0-3.3-1.5-3.3-3.3V8.4c0-1.8,1.5-3.3,3.3-3.3
					h26.8c1.8,0,3.3,1.5,3.3,3.3V35.2L38.5,35.2z"/>
				<circle id="Oval" cx="12.6" cy="13.9" r="3.9"/>
				<path id="Shape_1_" d="M35.2,18.2c-0.3-0.1-0.7-0.1-1,0.2L21.7,30.1l-6.9-5.3c-0.2-0.2-0.5-0.2-0.7-0.2c-0.3,0-0.5,0.2-0.6,0.4
					l-5.4,9.1c-0.2,0.3-0.2,0.6,0,0.9c0.2,0.3,0.5,0.5,0.8,0.5h26c0.5,0,0.9-0.4,0.9-0.9V19.1C35.7,18.7,35.5,18.4,35.2,18.2
					L35.2,18.2z"/>
			</g>
		</g>
	</g>
</g>
</svg>
