  <svg class="link-icon icon" version="1.1" xmlns="http://www.w3.org/2000/svg" xmlns:xlink="http://www.w3.org/1999/xlink" x="0px" y="0px"
     width="43.791px" height="43.791px" viewBox="0 0 43.791 43.791" enable-background="new 0 0 43.791 43.791" xml:space="preserve">
  <style>
    .fg{ 
      fill:#d8d8d8;
    }
    .bg{
      fill:none;
    }
  </style>
    <g>
      <circle class="bg" cx="21.895" cy="21.895" r="21.895"/>
      <g>
        <path class="fg" d="M13.48,21.818l1.313-1.313c-0.217,1.119-0.167,2.28,0.146,3.384c-1.084,1.385-0.99,3.398,0.284,4.674
          c1.38,1.379,3.622,1.379,5.002,0l4.168-4.168c1.379-1.379,1.379-3.623,0-5c-0.621-0.622-1.418-0.961-2.235-1.023l2.026-2.025
          c0.711,0.292,1.377,0.725,1.953,1.304c2.342,2.34,2.342,6.149,0,8.489l-4.168,4.17c-2.34,2.342-6.149,2.342-8.49,0
          C11.14,27.969,11.14,24.161,13.48,21.818z"/>
        <path class="fg" d="M28.846,19.901c1.086-1.388,0.994-3.399-0.281-4.677c-1.379-1.378-3.623-1.378-5.002,0.002l-4.168,4.169
          c-1.38,1.377-1.38,3.621,0,5c0.621,0.621,1.419,0.961,2.234,1.02l-2.026,2.029c-0.71-0.295-1.377-0.729-1.953-1.305
          c-2.341-2.34-2.341-6.149,0-8.489l4.168-4.168c2.341-2.343,6.152-2.343,8.492-0.002c2.342,2.343,2.342,6.15,0,8.492l-1.314,1.314
          C29.213,22.163,29.163,21.003,28.846,19.901z"/>
      </g>
    </g>
  </svg>