<?xml version="1.0" encoding="utf-8"?>
<!-- Generator: Adobe Illustrator 19.2.1, SVG Export Plug-In . SVG Version: 6.00 Build 0)  -->
<svg version="1.1" id="Layer_1" xmlns:sketch="http://www.bohemiancoding.com/sketch/ns"
	 xmlns="http://www.w3.org/2000/svg" xmlns:xlink="http://www.w3.org/1999/xlink" x="0px" y="0px" viewBox="0 0 44 44"
	 style="enable-background:new 0 0 44 44;" xml:space="preserve">
<title>Free Text Copy 2</title>
<desc>Created with Sketch.</desc>
<g id="Page-1" sketch:type="MSPage">
	<g id="Free-Text-Copy-2" sketch:type="MSArtboardGroup">
		<g id="Group" transform="translate(1.000000, 1.000000)" sketch:type="MSLayerGroup">
			<path id="Shape" sketch:type="MSShapeGroup" d="M4.7,20.7l2.5-2.5c-0.4,2.1-0.3,4.4,0.3,6.5c-2.1,2.6-1.9,6.5,0.5,8.9
				c2.6,2.6,6.9,2.6,9.5,0l8-8c2.6-2.6,2.6-6.9,0-9.5c-1.2-1.2-2.7-1.8-4.3-2l3.9-3.9c1.4,0.6,2.6,1.4,3.7,2.5
				c4.5,4.5,4.5,11.7,0,16.2l-8,8c-4.5,4.5-11.7,4.5-16.2,0C0.3,32.4,0.3,25.1,4.7,20.7L4.7,20.7z"/>
			<path id="Shape_1_" sketch:type="MSShapeGroup" d="M34.1,17c2.1-2.6,1.9-6.5-0.5-8.9c-2.6-2.6-6.9-2.6-9.5,0l-8,8
				c-2.6,2.6-2.6,6.9,0,9.5c1.2,1.2,2.7,1.8,4.3,1.9l-3.9,3.9c-1.4-0.6-2.6-1.4-3.7-2.5c-4.5-4.5-4.5-11.7,0-16.2l8-8
				c4.5-4.5,11.7-4.5,16.2,0c4.5,4.5,4.5,11.7,0,16.2l-2.5,2.5C34.8,21.3,34.7,19.1,34.1,17L34.1,17z"/>
		</g>
	</g>
</g>
</svg>
