<?xml version="1.0" encoding="utf-8"?>
<!-- Generator: Adobe Illustrator 19.1.0, SVG Export Plug-In . SVG Version: 6.00 Build 0)  -->
<svg version="1.1" xmlns="http://www.w3.org/2000/svg" xmlns:xlink="http://www.w3.org/1999/xlink" x="0px" y="0px"
	 viewBox="0 0 1223.8 1295.7" style="enable-background:new 0 0 1223.8 1295.7;" xml:space="preserve">
<style type="text/css">
	.st0{display:none;}
	.st1{display:inline;}
	.st2{fill:#CC0D3D;}
	.st3{fill:#02013D;}
	.st4{fill:#FFFFFF;stroke:#9A9DA0;stroke-width:5;stroke-miterlimit:10;}
	.st5{fill:#000033;}
	.st6{display:inline;fill:none;}
	.st7{display:inline;fill:#000033;}
	.st8{font-family:'Muli-LightItalic';}
	.st9{font-size:250px;}
	.st10{display:inline;fill:url(#SVGID_1_);}
	.st11{display:inline;fill:url(#SVGID_2_);}
	.st12{display:inline;opacity:0.46;fill:#DFEF11;}
	.st13{fill:#F0072E;}
	.st14{fill:url(#SVGID_3_);}
	.st15{fill:#000B23;}
	.st16{fill:#FFFFFF;}
	.st17{display:inline;opacity:0.48;fill:#D1D1E5;}
	.st18{display:inline;opacity:0.48;fill:#DFEF11;}
	.st19{display:inline;opacity:0.26;fill:#4214ED;}
	.st20{fill:#FF072E;}
	.st21{fill:url(#SVGID_4_);}
	.st22{display:inline;fill:url(#SVGID_5_);}
	.st23{display:inline;opacity:0.4;fill:#FFFFFF;stroke:#FFFFFF;stroke-miterlimit:10;}
	.st24{fill:url(#SVGID_6_);}
	.st25{fill:url(#SVGID_7_);stroke:#333333;stroke-miterlimit:10;}
	.st26{fill:url(#SVGID_8_);stroke:#333333;stroke-miterlimit:10;}
	.st27{fill:#FFFFFF;stroke:#FFFFFF;stroke-miterlimit:10;}
	.st28{fill:url(#SVGID_9_);stroke:#333333;stroke-miterlimit:10;}
	.st29{fill:#F4274A;}
	.st30{fill:url(#SVGID_10_);}
</style>
<g id="Layer_1" class="st0">
	<g class="st1">
		<path class="st2" d="M79,323.4c0,0-69.6,842-37.7,953.3s338.8,95,400.2,62.8s-109.7,48.6-153.4-14.2s-35.1-180-33.7-217.1
			s51.5-701.5,51.5-701.5L79,323.4z"/>
		<path class="st3" d="M77.4,322.2c0,0,482.6-155.2,786.3-104.6s261.9,352.2,179.7,552.3s-302.3,410.8-466.3,508.4
			c-163.9,97.6-312.3,128.6-333.8,0S293,408,293,408L77.4,322.2z"/>
		<g>
			<g>
				<path class="st3" d="M84.4,339.9c23.1,10,46.2,19.9,69.4,29.9c36.9,15.9,73.8,31.8,110.6,47.7c8.5,3.7,17,7.3,25.5,11
					c5.2,2.2,11.3,1.5,14.4-3.8c2.6-4.4,1.5-12.1-3.8-14.4c-23.1-10-46.2-19.9-69.4-29.9c-36.9-15.9-73.8-31.8-110.6-47.7
					c-8.5-3.7-17-7.3-25.5-11c-5.2-2.2-11.3-1.5-14.4,3.8C78,329.9,79.1,337.6,84.4,339.9L84.4,339.9z"/>
			</g>
		</g>
		<path class="st4" d="M258.4,403.6c0,0,321.9-108.5,524.4-73.1s174.7,246.1,119.8,385.9c-54.8,139.8-201.6,287.1-310.9,355.3
			s-208.2,89.8-222.6,0c-14.4-89.8,33.2-608.1,33.2-608.1L258.4,403.6z"/>
	</g>
</g>
<g id="Layer_2" class="st0">
	<g class="st1">
		<path class="st2" d="M91,130.4c0,0-69.6,842-37.7,953.3s338.8,95,400.2,62.8s-109.7,48.6-153.4-14.2s-35.1-180-33.7-217.1
			c1.4-37.1,51.5-701.5,51.5-701.5L91,130.4z"/>
		<path class="st5" d="M89.4,129.2c0,0,482.6-155.2,786.3-104.6s261.9,352.2,179.7,552.3s-302.3,410.8-466.3,508.4
			s-312.3,128.6-333.8,0S305,215,305,215L89.4,129.2z"/>
		<g>
			<g>
				<path class="st5" d="M96.4,146.9c23.1,10,46.2,19.9,69.4,29.9c36.9,15.9,73.8,31.8,110.6,47.7c8.5,3.7,17,7.3,25.5,11
					c5.2,2.2,11.3,1.5,14.4-3.8c2.6-4.4,1.5-12.1-3.8-14.4c-23.1-10-46.2-19.9-69.4-29.9c-36.9-15.9-73.8-31.8-110.6-47.7
					c-8.5-3.7-17-7.3-25.5-11c-5.2-2.2-11.3-1.5-14.4,3.8C90,136.9,91.1,144.6,96.4,146.9L96.4,146.9z"/>
			</g>
		</g>
		<path class="st4" d="M290.4,220.3c0,0,310.9-105.4,506.5-71s168.7,239.1,115.8,374.9S717.9,803.1,612.3,869.4s-201.1,87.3-215.1,0
			c-13.9-87.3,32-590.8,32-590.8L290.4,220.3z"/>
	</g>
	<rect x="-278.3" y="1219.3" class="st6" width="1716.4" height="252"/>
	<text transform="matrix(1 0 0 1 -162.2782 1403.2943)" class="st7 st8 st9">DeepStream</text>
</g>
<g id="Layer_3" class="st0">
	
		<radialGradient id="SVGID_1_" cx="894.0854" cy="-640.4257" r="6.7155" gradientTransform="matrix(0.9494 -0.3141 0.2468 0.746 203.332 118.1727)" gradientUnits="userSpaceOnUse">
		<stop  offset="0" style="stop-color:#000033"/>
		<stop  offset="0.5979" style="stop-color:#00002E"/>
		<stop  offset="1" style="stop-color:#00001A"/>
	</radialGradient>
	<path class="st10" d="M903-637.2c-5.9-2.2-11.9-4.3-17.9-6.4C885.8-643.5,892.6-641.6,903-637.2z"/>
	
		<radialGradient id="SVGID_2_" cx="1039.7253" cy="-321.8057" r="4.1865" gradientTransform="matrix(0.9494 -0.3141 0.2468 0.746 132.0606 244.8605)" gradientUnits="userSpaceOnUse">
		<stop  offset="0" style="stop-color:#000033"/>
		<stop  offset="0.5979" style="stop-color:#00002E"/>
		<stop  offset="1" style="stop-color:#00001A"/>
	</radialGradient>
	<path class="st11" d="M1040.2-315.9l-0.9-0.9c0.2-3.6,0.3-7.2,0.5-10.9C1040.1-319.7,1040.2-315.9,1040.2-315.9z"/>
	<path class="st12" d="M-161.8,893.4c4-2.8,8-5.7,11.9-8.6C-153.8,887.7-157.8,890.6-161.8,893.4z"/>
	<g class="st1">
		<path class="st13" d="M383.1,1224.4c-24.9,1.5-304-63-306-191c-1.8-115,31.3-709.2,38-829.1c0.2-4.3,0.4-8.1,0.6-11.1
			c0.7-1.6,1.6-3.2,2.8-4.6c4.7,3.1,15.6,5.3,28.3,5.3c15.8,0,28.8-3.4,30.6-7.7l215.7,10.3C393.2,196.4,408.1,1222.9,383.1,1224.4z
			"/>
		<g>
			<g>
				<radialGradient id="SVGID_3_" cx="163.7494" cy="-36.8747" r="1445.5905" gradientUnits="userSpaceOnUse">
					<stop  offset="0.7319" style="stop-color:#000C1E"/>
					<stop  offset="1" style="stop-color:#000000"/>
					<stop  offset="1" style="stop-color:#00001A"/>
				</radialGradient>
				<path class="st14" d="M120.4,184.2c0,0,482.6-155.2,786.3-104.6s261.9,352.2,179.7,552.3s-302.3,410.8-466.3,508.4
					c-163.9,97.6-312.3,128.6-333.8,0C264.7,1011.7,336,270,336,270L120.4,184.2z"/>
			</g>
			<g>
				<g>
					<path class="st15" d="M123.7,205.3c23.3,9.5,46.6,19.1,69.9,28.6c37.2,15.2,74.3,30.4,111.5,45.6c8.6,3.5,17.1,7,25.7,10.5
						c6,2.5,13.2-2.7,14.8-8.4c1.9-6.9-2.4-12.3-8.4-14.8c-23.3-9.5-46.6-19.1-69.9-28.6c-37.2-15.2-74.3-30.4-111.5-45.6
						c-8.6-3.5-17.1-7-25.7-10.5c-6-2.5-13.2,2.7-14.8,8.4C113.4,197.4,117.6,202.8,123.7,205.3L123.7,205.3z"/>
				</g>
			</g>
			<path class="st16" d="M346.4,286.2c0,0,311.6-107.8,507.7-72.7s169.1,244.6,116,383.6S774.9,882.4,669,950.2s-201.6,89.3-215.5,0
				s32.1-604.4,32.1-604.4L346.4,286.2z"/>
		</g>
	</g>
	<path class="st17" d="M-502.1,1071.2l27.3,1.7c-0.3,0.1-0.5,0.2-0.8,0.4l-29.7-2c-11.1-0.7-21.8-3-31.8-6.7
		C-526,1068.2-514.3,1070.4-502.1,1071.2z"/>
	<path class="st18" d="M-564.9,129.4c-0.2,0.2-0.4,0.3-0.6,0.5l0-0.8L-564.9,129.4z"/>
	<path class="st19" d="M1401.5,1108.2c-11.4-5.1-21.3-12.2-29.4-21.4c-3.4-3.9-6.5-8-9.1-12.4
		C1373.2,1087.9,1386.3,1099.5,1401.5,1108.2z"/>
	<path class="st19" d="M1613.5,1065.6c-18.3,11.3-36.7,20.8-54.7,28.6c3.8-1.9,7.5-3.8,11.2-5.7c0.2-0.1,0.4-0.2,0.6-0.3
		c2.4-1.2,4.8-2.5,7.2-3.7c2.4-1.2,4.8-2.5,7.2-3.7c2.4-1.2,4.8-2.5,7.1-3.8C1599.4,1073.2,1606.5,1069.4,1613.5,1065.6z"/>
</g>
<g id="Layer_6">
	<g>
		<path class="st20" d="M401.1,1210.4c-5,0.3-20.4-2.1-41.7-7.1c-84.5-20-262.7-81.7-264.3-183.9c-1.8-115,31.3-709.2,38-829.1
			c0.2-4.3,0.4-8.1,0.6-11.1c0.7-1.6,1.6-3.2,2.8-4.6c4.4,2.9,14.2,5,25.9,5.3c0.8,0,1.6,0,2.4,0c15.8,0,28.8-3.4,30.6-7.7
			l215.7,10.3c0,0,0.4,28,1,74.7c-29.9,8.9-47.8,15.1-47.8,15.1l48.2,20.6C415.6,558.1,421,1209.2,401.1,1210.4z"/>
		<g>
			<g>
				<radialGradient id="SVGID_4_" cx="181.7521" cy="-50.8751" r="1445.5895" gradientUnits="userSpaceOnUse">
					<stop  offset="0.7319" style="stop-color:#000C1E"/>
					<stop  offset="1" style="stop-color:#000000"/>
					<stop  offset="1" style="stop-color:#00001A"/>
				</radialGradient>
				<path class="st21" d="M924.7,65.6C621,15,138.4,170.2,138.4,170.2l24.1,9.6L354,256c0,0-71.3,741.6-49.7,870.2
					c6.8,40.7,26.4,65.4,55.1,77.1c62,25.2,166.7-10.4,278.7-77.1c163.9-97.6,384-308.3,466.3-508.4
					C1186.6,417.8,1228.4,116.2,924.7,65.6z M988.1,583.1C935,722.1,792.9,868.4,687,936.2s-201.6,89.3-215.5,0
					c-13.9-89.3,32.1-604.4,32.1-604.4l-91.1-39l-48.2-20.6c0,0,17.9-6.2,47.8-15.1c94.9-28.3,310.8-84.3,459.9-57.5
					C1068.1,234.7,1041.2,444.2,988.1,583.1z"/>
			</g>
			<path class="st20" d="M138.4,170.2c0,0-4.1,0.7-4.6,9c-0.5,8.3-1.7,29.7-1.7,29.7l218.3,85.2l3.6-38L138.4,170.2z"/>
			<path class="st15" d="M133.4,186.7c0,0-1.1-14.6,5-16.5c6.1-1.9,22.9-7,22.9-7l217.9,81.8l-27,25L133.4,186.7z"/>
		</g>
	</g>
	<polygon class="st20" points="133.8,179.1 352.2,269.9 350.5,294.1 132.1,208.8 	"/>
</g>
<g id="Layer_4" class="st0">
	<linearGradient id="SVGID_5_" gradientUnits="userSpaceOnUse" x1="-1091.5992" y1="627.9288" x2="-1778.8528" y2="550.419">
		<stop  offset="0" style="stop-color:#F40633"/>
		<stop  offset="1" style="stop-color:#D13A7B"/>
	</linearGradient>
	<path class="st22" d="M-1331.9,133.2c0,0-40.9,682-38.9,802.9c2,120.9,278.9,181.8,303.7,180.4c24.8-1.4,9.9-970.7,9.9-970.7
		L-1331.9,133.2z"/>
	<rect x="-278.3" y="1292.9" class="st6" width="1716.4" height="252"/>
	<text transform="matrix(1 0 0 1 -162.2782 1476.9071)" class="st7 st8 st9">DeepStream</text>
	<path class="st23" d="M302.9,1111.9L302.9,1111.9c-1.6-3-3-6.2-4.4-9.3C299.9,1105.8,301.4,1108.9,302.9,1111.9z"/>
	<g class="st1">
		<linearGradient id="SVGID_6_" gradientUnits="userSpaceOnUse" x1="51.5437" y1="690.2982" x2="1183.5437" y2="786.2982">
			<stop  offset="0" style="stop-color:#F40633"/>
			<stop  offset="1" style="stop-color:#D13A7B"/>
		</linearGradient>
		<path class="st24" d="M566.2,331.7v825.4c-29.5,11.8-57.3,21.5-83.3,29.4c-32.1,9.7-61.6,16.7-88.7,21.2
			c-95.3-8.8-229.5-35.2-285.3-112.8c-16.5-35.4-22-70.2-23.8-91.5c0-0.6-0.2-1.1-0.2-1.7c-0.3-4-0.5-7.5-0.6-10.3
			c0-0.5,0-0.9,0-1.3c0-0.4,0-0.8-0.1-1.2c0-0.2,0-0.4,0-0.6c-0.1-2.6,0-4.4,0-5.2c0-0.3,0-0.4,0-0.4l4-105.1l32.1-670
			C120.1,207.8,366.2,276.7,566.2,331.7z"/>
		
			<radialGradient id="SVGID_7_" cx="627.851" cy="646.7967" r="537.8575" fx="98.277" fy="552.7642" gradientUnits="userSpaceOnUse">
			<stop  offset="0" style="stop-color:#000033"/>
			<stop  offset="0.4768" style="stop-color:#00002E"/>
			<stop  offset="1" style="stop-color:#00001A"/>
		</radialGradient>
		<path class="st25" d="M1138.9,452.4c-1.5,16.5-3.6,34.1-6.3,52.9c0,0,0,0,0,0.1c-1.8,10.3-4.1,20.8-6.6,31.5
			c-15,63.1-41.7,131.9-75.2,190.7c-40.8,71.8-95,140.7-160.9,205.7c-20.5,20.2-42.1,40.1-64.8,59.6c-14.1,12.1-28.7,24.1-43.7,35.9
			c-3.7,2.9-7.4,5.8-11.2,8.8c-7.6,5.9-15.4,11.8-23.2,17.6c-3.9,2.8-7.7,5.7-11.6,8.5c-0.1,0-0.1,0.1-0.2,0.1
			c-3.9,2.9-7.9,5.8-11.9,8.6c-4,2.9-8,5.7-12.1,8.5c-4.1,2.8-8.1,5.7-12.2,8.5c-4.1,2.8-8.2,5.6-12.4,8.4c-2.1,1.4-4.2,2.8-6.2,4.2
			s-4.2,2.8-6.3,4.2c-1,0.7-2,1.3-3,1.9c-1.9,1.2-3.7,2.5-5.6,3.7c-1.3,0.8-2.5,1.7-3.8,2.5c-0.1,0.1-0.2,0.1-0.3,0.2
			c-2.1,1.4-4.3,2.8-6.4,4.1c-4.2,2.7-8.4,5.3-12.6,8c-0.1,0.1-0.2,0.1-0.3,0.2c-2.2,1.4-4.3,2.7-6.5,4.1c-2,1.2-4,2.5-6,3.8
			c-0.2,0.1-0.3,0.2-0.5,0.3c-328.3,193.7-356.6-53.9-358.2-125.2c0-0.5,0-1,0-1.5c-0.1-4.1,0-7.6,0-10.2c0-0.4,0-0.7,0-1
			c0-0.2,0-0.4,0-0.5c0-2.3,0.1-3.9,0.2-4.5c0-0.2,0-0.4,0-0.4l6-92.6l42.4-590c0.2-0.2,0.4-0.3,0.6-0.5l-0.6-0.3l-1.4-0.7
			l-204.3-95.7c0,0,550-140.5,764.5-124.4c9.4,0.7,17.2,1.8,23.5,3.2c60.8,7.7,113.3,30.1,154.1,68.5c25.9,24.4,45.7,54,59.5,87.7
			c0,0,0,0,0,0C1116.3,248.2,1152.3,302.8,1138.9,452.4z"/>
		
			<radialGradient id="SVGID_8_" cx="1135.7303" cy="478.8593" r="18.8364" fx="1117.1841" fy="475.5662" gradientUnits="userSpaceOnUse">
			<stop  offset="0" style="stop-color:#000033"/>
			<stop  offset="0.4768" style="stop-color:#00002E"/>
			<stop  offset="1" style="stop-color:#00001A"/>
		</radialGradient>
		<path class="st26" d="M1138.9,452.4c-0.8,16.6-3,34.3-6.3,52.9C1135.3,486.5,1137.4,468.9,1138.9,452.4z"/>
		<path class="st27" d="M1025.5,437.6c0.1,2.4,0.2,4.5,0.3,6.2c-0.1,2.5-0.2,5.1-0.3,7.6c-3.8,70.3-25.1,138.4-61.8,203
			c-28.5,50.2-66.4,98.3-112.4,143.8c-14.3,14.1-29.4,28-45.3,41.6c-9.9,8.5-20.1,16.8-30.6,25.1c-2.6,2-5.2,4.1-7.8,6.1
			c-5.3,4.1-10.7,8.2-16.2,12.3c-2.7,2-5.4,4-8.1,6c0,0-0.1,0-0.1,0.1c-2.8,2-5.5,4-8.3,6c-2.8,2-5.6,4-8.4,6c-2.8,2-5.7,4-8.5,5.9
			c-2.9,2-5.8,3.9-8.7,5.9c-1.4,1-2.9,2-4.4,2.9s-2.9,1.9-4.4,2.9c-0.7,0.5-1.4,0.9-2.1,1.4c-1.3,0.9-2.6,1.7-3.9,2.6
			c-0.9,0.6-1.8,1.2-2.7,1.7c-0.1,0-0.1,0.1-0.2,0.1c-1.5,1-3,1.9-4.5,2.9c-2.9,1.9-5.8,3.7-8.8,5.6c-0.1,0-0.2,0.1-0.2,0.1
			c-1.5,1-3,1.9-4.5,2.8c-1.4,0.9-2.8,1.7-4.2,2.6c-0.1,0.1-0.2,0.1-0.4,0.2c-229.4,135.4-249.2-37.6-250.3-87.5c0-0.3,0-0.7,0-1
			c0-2.9,0-5.3,0-7.2c0-0.3,0-0.5,0-0.7c0-0.1,0-0.2,0-0.4c0-1.6,0.1-2.7,0.1-3.2c0-0.2,0-0.3,0-0.3l4.2-64.7l29.7-412.3
			c0.1-0.1,0.3-0.2,0.4-0.3l-0.4-0.2l-1-0.5L308.8,294c0,0,384.4-98.2,534.3-86.9c6.6,0.5,12,1.2,16.4,2.2
			c42.5,5.4,79.2,21,107.7,47.8c22.7,21.4,38.6,48.4,48.2,79.8C1024.4,366.8,1027.7,400.8,1025.5,437.6z"/>
		
			<radialGradient id="SVGID_9_" cx="1129.2604" cy="521.1243" r="11.3815" fx="1118.0542" fy="519.1345" gradientUnits="userSpaceOnUse">
			<stop  offset="0" style="stop-color:#000033"/>
			<stop  offset="0.4768" style="stop-color:#00002E"/>
			<stop  offset="1" style="stop-color:#00001A"/>
		</radialGradient>
		<path class="st28" d="M1132.6,505.4c-2,13.6-4.2,24-6.6,31.5C1128.5,526.2,1130.7,515.7,1132.6,505.4z"/>
	</g>
</g>
<g id="Layer_5" class="st0">
	<rect x="-278.3" y="-38.1" class="st1" width="1716.4" height="1306.3"/>
	<g class="st1">
		<path class="st29" d="M418.1,1224.4c-5,0.3-20.4-2.1-41.7-7.1c-84.5-20-262.7-81.7-264.3-183.9c-1.8-115,31.3-709.2,38-829.1
			c0.2-4.3,0.4-8.1,0.6-11.1c0.7-1.6,1.6-3.2,2.8-4.6c4.4,2.9,14.2,5,25.9,5.3c0.8,0,1.6,0,2.4,0c15.8,0,28.8-3.4,30.6-7.7
			l215.7,10.3c0,0,0.4,28,1,74.7c-29.9,8.9-47.8,15.1-47.8,15.1l48.2,20.6C432.6,572.1,438,1223.2,418.1,1224.4z"/>
		<g>
			<g>
				
					<radialGradient id="SVGID_10_" cx="663.1652" cy="619.4367" r="645.8974" fx="1236.8025" fy="322.5804" gradientUnits="userSpaceOnUse">
					<stop  offset="0" style="stop-color:#000C1E"/>
					<stop  offset="0.5172" style="stop-color:#00002E"/>
					<stop  offset="1" style="stop-color:#00001A"/>
				</radialGradient>
				<path class="st30" d="M941.7,79.6C638,29,155.4,184.2,155.4,184.2l24.1,9.6L371,270c0,0-71.3,741.6-49.7,870.2
					c6.8,40.7,26.4,65.4,55.1,77.1c62,25.2,166.7-10.4,278.7-77.1c163.9-97.6,384-308.3,466.3-508.4
					C1203.6,431.8,1245.4,130.2,941.7,79.6z M1005.1,597.1C952,736.1,809.9,882.4,704,950.2s-201.6,89.3-215.5,0
					c-13.9-89.3,32.1-604.4,32.1-604.4l-91.1-39l-48.2-20.6c0,0,17.9-6.2,47.8-15.1c94.9-28.3,310.8-84.3,459.9-57.5
					C1085.1,248.7,1058.2,458.2,1005.1,597.1z"/>
			</g>
			<g>
				<g>
					<path class="st15" d="M158.7,205.3c23.3,9.5,46.6,19.1,69.9,28.6c37.2,15.2,74.3,30.4,111.5,45.6c8.6,3.5,17.1,7,25.7,10.5
						c6,2.5,13.2-2.7,14.8-8.4c1.9-6.9-2.4-12.3-8.4-14.8c-23.3-9.5-46.6-19.1-69.9-28.6c-37.2-15.2-74.3-30.4-111.5-45.6
						c-8.6-3.5-17.1-7-25.7-10.5c-6-2.5-13.2,2.7-14.8,8.4C148.4,197.4,152.6,202.8,158.7,205.3L158.7,205.3z"/>
				</g>
			</g>
		</g>
	</g>
</g>
</svg>
