<svg id="fc81b6ee-1085-4ecd-9d4e-d15ba9cae899" data-name="Layer 1" xmlns="http://www.w3.org/2000/svg" viewBox="0 0 23.42 23.82"><defs><style>.\37 63c6cc0-4cc0-4591-be2a-e8f973cb5856{fill:#1ea361;}.\36 047208a-65a3-4e35-8841-b798345051e3,.\36 09459fc-a2fc-4532-8c46-badfd66aa4fa,.\36 c7396be-ff1d-4e4a-ac37-53cc5106adab,.\37 63c6cc0-4cc0-4591-be2a-e8f973cb5856,.e3c17820-af76-4468-ab92-620afaa04ad8{fill-rule:evenodd;}.e3c17820-af76-4468-ab92-620afaa04ad8{fill:#fedb43;}.\36 047208a-65a3-4e35-8841-b798345051e3{fill:#5384c4;}.\36 09459fc-a2fc-4532-8c46-badfd66aa4fa{fill:#fff;}.\36 c7396be-ff1d-4e4a-ac37-53cc5106adab{fill:#c2c2c1;}.b310b488-50d0-486b-a97c-44313204755a{fill:#efefef;}.\36 3683e51-78f1-4e31-bc8f-6c4e5afeefa7{fill:#dc4b3e;}.\39 f75d0ce-d441-42ce-abc6-87b8a8a2ddf4{fill:#802c27;}</style></defs><title>map_icon</title><path class="763c6cc0-4cc0-4591-be2a-e8f973cb5856" d="M10.29,31.77v-17A1.79,1.79,0,0,1,12.08,13H29Z" transform="translate(-10.29 -10.09)"/><path class="e3c17820-af76-4468-ab92-620afaa04ad8" d="M10.29,32.13V31.77L29,13h0.36a1.79,1.79,0,0,1,1.79,1.79v0.36L12.43,33.91H12.08A1.79,1.79,0,0,1,10.29,32.13Z" transform="translate(-10.29 -10.09)"/><polygon class="6047208a-65a3-4e35-8841-b798345051e3" points="2.14 23.82 10.44 15.52 18.74 23.82 2.14 23.82"/><path class="609459fc-a2fc-4532-8c46-badfd66aa4fa" d="M29,33.91l-8.43-8.43,2.14-2.14,8.43,8.43v0.36a1.79,1.79,0,0,1-1.79,1.79H29Z" transform="translate(-10.29 -10.09)"/><polygon class="6c7396be-ff1d-4e4a-ac37-53cc5106adab" points="20.88 21.68 12.58 13.38 20.88 5.08 20.88 21.68"/><path class="b310b488-50d0-486b-a97c-44313204755a" d="M14,15.34a3,3,0,0,1,3.26.51l-0.82.81a1.82,1.82,0,0,0-2.89.68,1.87,1.87,0,0,0,1.59,2.6,1.66,1.66,0,0,0,1.8-1.26h-1.7c0-.35,0-0.7,0-1.05,0.95,0,1.92-.05,2.86,0a3.24,3.24,0,0,1-.35,2A2.86,2.86,0,0,1,14.6,21,3,3,0,0,1,14,15.34Z" transform="translate(-10.29 -10.09)"/><path class="63683e51-78f1-4e31-bc8f-6c4e5afeefa7" d="M27.53,10.09h0.68a6,6,0,0,1,4.37,2.28,5.6,5.6,0,0,1,1.13,3v0.4c0,2.1-1.38,3.82-2.55,5.45a14.54,14.54,0,0,0-2.85,6.13,1.18,1.18,0,0,1-.44,1.1,1.23,1.23,0,0,1-.31-0.27,11.64,11.64,0,0,0-1-3.69,22,22,0,0,0-2.34-3.77,17.29,17.29,0,0,1-1.44-2.25,5.84,5.84,0,0,1-.63-3.92,5.52,5.52,0,0,1,1.53-2.78A6.08,6.08,0,0,1,27.53,10.09Zm-0.13,3.7a2,2,0,0,0-1.54,1.72,1.94,1.94,0,0,0,1.06,1.9,2.12,2.12,0,0,0,2.37-.3A1.93,1.93,0,0,0,29.77,15,2.07,2.07,0,0,0,27.4,13.79Z" transform="translate(-10.29 -10.09)"/><path class="9f75d0ce-d441-42ce-abc6-87b8a8a2ddf4" d="M27.4,13.79A2.07,2.07,0,0,1,29.77,15a1.93,1.93,0,0,1-.49,2.14,2.12,2.12,0,0,1-2.37.3,1.94,1.94,0,0,1-1.06-1.9A2,2,0,0,1,27.4,13.79Z" transform="translate(-10.29 -10.09)"/></svg>