<svg id="e4a82670-a6ba-4d67-a103-e61df1df937a" data-name="Layer 1" xmlns="http://www.w3.org/2000/svg" viewBox="0 0 44 44"><defs><style>.dc464e03-afea-4190-a44d-ad6c1edec27d{fill:#d8d8d8;}</style></defs><title>poll_icon</title><circle class="dc464e03-afea-4190-a44d-ad6c1edec27d" cx="22" cy="22" r="22"/><path d="M13,29H32c0.6,0,1,.2,1,0.5h0c0,0.3-.4.5-1,0.5H13c-0.6,0-1-.2-1-0.5h0C12,29.2,12.4,29,13,29Z"/><path d="M13,34H32c0.6,0,1,.2,1,0.5h0c0,0.3-.4.5-1,0.5H13c-0.6,0-1-.2-1-0.5h0C12,34.2,12.4,34,13,34Z"/><path d="M25.1,13.3l6.9-3A10.34,10.34,0,0,0,26.6,5l-2.8,7a4,4,0,0,1,1.3,1.3h0Z"/><path d="M31.4,11.8l-5.9,2.5c0,0.2.1,0.4,0.1,0.7a3.48,3.48,0,0,1-3.5,3.5A3.56,3.56,0,0,1,18.5,15,3.48,3.48,0,0,1,22,11.5a1.27,1.27,0,0,1,.6.1l2.4-6a9.7,9.7,0,0,0-6.9.3A10.08,10.08,0,0,0,12.8,19a9.89,9.89,0,0,0,13,5.3,10.07,10.07,0,0,0,5.6-12.5h0Z"/></svg>