<?xml version="1.0" encoding="utf-8"?>
<!-- Generator: Adobe Illustrator 19.2.1, SVG Export Plug-In . SVG Version: 6.00 Build 0)  -->
<svg version="1.1" id="Layer_1" xmlns="http://www.w3.org/2000/svg" xmlns:xlink="http://www.w3.org/1999/xlink" x="0px" y="0px"
	 viewBox="0 0 44 44" style="enable-background:new 0 0 44 44;" xml:space="preserve">
<style type="text/css">
	.st0{fill:none;stroke:#000000;stroke-miterlimit:10;}
</style>
<g>
	<g>
		<circle class="st0" cx="22" cy="22" r="22"/>
		<path d="M13,29h19c0.6,0,1,0.2,1,0.5l0,0c0,0.3-0.4,0.5-1,0.5H13c-0.6,0-1-0.2-1-0.5l0,0C12,29.2,12.4,29,13,29z"/>
		<path d="M13,34h19c0.6,0,1,0.2,1,0.5l0,0c0,0.3-0.4,0.5-1,0.5H13c-0.6,0-1-0.2-1-0.5l0,0C12,34.2,12.4,34,13,34z"/>
		<g transform="translate(11.000000, 5.000000)">
			<path d="M14.1,8.3l6.9-3C19.9,2.8,17.9,1,15.6,0l-2.8,7C13.3,7.3,13.8,7.8,14.1,8.3L14.1,8.3z"/>
			<path d="M20.4,6.8l-5.9,2.5c0,0.2,0.1,0.4,0.1,0.7c0,2-1.6,3.5-3.5,3.5S7.5,12,7.5,10S9.1,6.5,11,6.5c0.2,0,0.4,0,0.6,0.1l2.4-6
				c-2.2-0.7-4.6-0.7-6.9,0.3c-5,2.1-7.4,8-5.3,13.1c2.1,5.1,7.9,7.4,13,5.3C19.7,17.2,22.1,11.7,20.4,6.8L20.4,6.8z"/>
		</g>
	</g>
</g>
</svg>
