
<svg class="twitter-icon icon" version="1.1" xmlns="http://www.w3.org/2000/svg" xmlns:xlink="http://www.w3.org/1999/xlink" x="0px" y="0px"
     width="44px" height="44px" viewBox="0 0 43.791 43.791" enable-background="new 0 0 43.791 43.791" xml:space="preserve">
  <style>
    .fg{ 
      fill:#d8d8d8;
    }
    .bg{
      fill:none;
    }
  </style>
    <g>
      <circle class="bg" cx="21.896" cy="21.894" r="21.895"/>
      <path class="fg" d="M33.561,16.279c-0.785,0.349-1.629,0.584-2.514,0.689c0.903-0.541,1.598-1.399,1.924-2.422
        c-0.845,0.502-1.782,0.866-2.778,1.062c-0.799-0.85-1.937-1.382-3.194-1.382c-2.417,0-4.377,1.96-4.377,4.376
        c0,0.343,0.039,0.678,0.113,0.998c-3.636-0.184-6.861-1.926-9.02-4.572c-0.377,0.646-0.593,1.397-0.593,2.199
        c0,1.519,0.772,2.857,1.947,3.643c-0.718-0.022-1.393-0.22-1.983-0.547c0,0.018,0,0.036,0,0.055c0,2.12,1.51,3.889,3.511,4.291
        c-0.366,0.1-0.754,0.153-1.152,0.153c-0.282,0-0.556-0.027-0.823-0.079c0.557,1.739,2.173,3.004,4.086,3.04
        c-1.496,1.173-3.383,1.873-5.434,1.873c-0.352,0-0.702-0.021-1.044-0.062c1.937,1.242,4.237,1.967,6.708,1.967
        c8.05,0,12.452-6.668,12.452-12.451c0-0.189-0.005-0.379-0.013-0.566C32.231,17.927,32.975,17.156,33.561,16.279z"/>
    </g>
  </svg>