<svg id="b449b04f-05e7-4167-a644-f7337b6ea90c" data-name="Layer 1" xmlns="http://www.w3.org/2000/svg" viewBox="0 0 32.51 26.42"><defs><style>.\33 dece1df-445a-46ed-86f4-f7ebb0e064a4{fill:#d8d8d8;}</style></defs><title>twitter_icon</title><path class="3dece1df-445a-46ed-86f4-f7ebb0e064a4" d="M38.25,11.92a13.26,13.26,0,0,1-3.83,1,6.68,6.68,0,0,0,2.93-3.69,13.32,13.32,0,0,1-4.23,1.62,6.67,6.67,0,0,0-11.54,4.56A6.75,6.75,0,0,0,21.76,17,19,19,0,0,1,8,10a6.67,6.67,0,0,0,2.06,8.9,6.64,6.64,0,0,1-3-.83v0.08a6.68,6.68,0,0,0,5.35,6.54,6.67,6.67,0,0,1-1.76.23,6.54,6.54,0,0,1-1.25-.12,6.68,6.68,0,0,0,6.23,4.63,13.44,13.44,0,0,1-9.87,2.76,18.87,18.87,0,0,0,10.22,3c12.27,0,19-10.16,19-19,0-.29,0-0.58,0-0.86A13.57,13.57,0,0,0,38.25,11.92Z" transform="translate(-5.75 -8.79)"/></svg>